<svg width="411" height="147" viewBox="0 0 411 147" fill="none" xmlns="http://www.w3.org/2000/svg">
<path d="M209.182 18.3059V6.97507H215.929V0H194.472V6.97507H201.225V18.3059L182.919 0V40.5408H190.859V19.1595L201.225 29.5256V33.5657H194.472V40.5408H215.929V33.5657H209.182V29.5256L219.548 19.1595V40.5408H227.476V0L209.182 18.3059Z" fill="white"/>
<path d="M173.5 94.2658C177.61 97.6569 179.668 102.428 179.668 108.584C179.668 115.051 177.499 120.026 173.172 123.511C168.84 126.995 163.064 128.732 155.843 128.732H142.372V145.687H130.977V89.1851H156.591C163.753 89.1851 169.384 90.8806 173.5 94.2717M164.835 101.703C162.73 100.007 159.83 99.1595 156.129 99.1595H142.378V119.032H156.223C164.069 119.032 167.992 115.7 167.992 109.046C167.992 105.842 166.94 103.398 164.835 101.697" fill="white"/>
<path d="M229.791 99.1595V89.1792H195.378V145.681H229.791V135.701H206.767V122.423H229.791V112.443H206.767V99.1595H229.791Z" fill="white"/>
<path d="M245.104 89.1792H290.836V99.1595H273.711V145.681H262.322V99.1595H245.104V89.1792Z" fill="white"/>
<path d="M339.481 89.1792V124.3C339.481 127.662 338.551 130.451 336.709 132.591C334.909 134.69 332.172 135.754 328.594 135.754C325.016 135.754 322.315 134.672 320.426 132.538C318.515 130.375 317.544 127.609 317.544 124.3V89.1792H306.161V124.3C306.161 130.813 308.213 136.233 312.259 140.419C316.31 144.611 321.806 146.734 328.594 146.734C335.382 146.734 340.925 144.623 344.901 140.46C348.865 136.303 350.876 130.866 350.876 124.3V89.1792H339.487H339.481Z" fill="white"/>
<path d="M81.4906 119.541L51.123 89.1792V145.687H62.489V116.618L81.4906 135.613L100.469 116.629V145.687H111.835V89.1967L81.4906 119.541Z" fill="white"/>
<path d="M31.5661 99.1595V89.1792H0V99.1595H10.0855V135.701H0V145.681H31.5661V135.701H21.4806V99.1595H31.5661Z" fill="white"/>
<path d="M405.595 118.12C402.403 115.395 397.24 113.068 390.242 111.192C385.611 109.923 382.565 108.818 380.922 107.806C379.279 106.801 378.484 105.509 378.484 103.866C378.484 100.077 381.495 98.2355 387.692 98.2355C390.3 98.2355 393.025 98.6798 395.79 99.5568C398.807 100.51 400.356 101.264 401.017 101.627C401.707 102.007 402.894 102.767 402.894 102.767L408.968 93.5699C408.968 93.5699 408.261 92.8916 407.074 92.155C405.823 91.3774 403.554 90.2314 399.795 89.2024C396.264 88.2377 392.188 87.7466 387.687 87.7466C380.624 87.7466 375.122 89.2667 371.339 92.2719C367.551 95.2771 365.633 99.399 365.633 104.527C365.633 108.847 367.217 112.349 370.351 114.951C373.479 117.547 378.46 119.81 385.149 121.686C390.019 123.02 393.206 124.23 394.884 125.405C396.533 126.563 397.369 128.089 397.369 129.959C397.369 134.187 394.235 136.245 387.786 136.245C385.044 136.245 382.191 135.736 379.314 134.736C376.402 133.725 373.555 132.45 371.135 130.79C370.427 131.86 365.229 139.735 365.229 139.735L365.247 139.753C366.937 141.261 369.737 143.109 375.397 144.898C379.244 146.114 383.506 146.739 388.067 146.739C395.387 146.739 400.994 145.073 404.747 141.793C408.501 138.507 410.407 134.175 410.407 128.925C410.407 124.481 408.787 120.845 405.595 118.126" fill="white"/>
</svg>
